# xmcd CD database file
#
# Track frame offsets:
#	150
#	8500
#	32717
#	46015
#	63705
#	88097
#	110995
#	130062
#	148092
#	179827
#
# Disc length: 2793 seconds
#
# Revision: 0
# Processed by: cddbd v1.5.1PL2 Copyright (c) Steve Scherf et al.
# Submitted via: CDex 1.51
#
DISCID=8e0ae70a
DTITLE=JV-1010 Alliance - Piece
DYEAR=2000
DGENRE=Game
TTITLE0=東浩二 - まじかるリーフ
TTITLE1=ZTS - 君がいない部屋
TTITLE2=森里 - ヒマワリの丘
TTITLE3=S.Hida - Blue Lavender
TTITLE4=ZTS - 二人だけの時間
TTITLE5=SASH - 圧倒する力
TTITLE6=S.Hida - 君のRiddle
TTITLE7=S.Hida - Pretty Daisy
TTITLE8=SASH - LittleStone
TTITLE9=DataTrack
EXTD=YEAR: 2000
EXTT0=
EXTT1=
EXTT2=
EXTT3=
EXTT4=
EXTT5=
EXTT6=
EXTT7=
EXTT8=
EXTT9=
PLAYORDER=
